<?xml version="1.0" encoding="UTF-8" standalone="no"?>
<!DOCTYPE svg PUBLIC "-//W3C//DTD SVG 1.1//EN" "http://www.w3.org/Graphics/SVG/1.1/DTD/svg11.dtd">
<svg width="100%" height="100%" viewBox="0 0 32 32" version="1.1" xmlns="http://www.w3.org/2000/svg" xmlns:xlink="http://www.w3.org/1999/xlink" xml:space="preserve" xmlns:serif="http://www.serif.com/" style="fill-rule:evenodd;clip-rule:evenodd;stroke-linejoin:round;stroke-miterlimit:2;">
    <g transform="matrix(0.0402031,0,0,0.0402031,-34.8546,-9.69732)">
        <g transform="matrix(1,0,0,1,864.865,239.11)">
            <path d="M546.875,383.125L531.25,355.938L512.031,322.656L511.875,322.5L488.281,281.563C482.187,271.094 471.094,264.687 459.062,264.687L341.875,264.687C329.844,264.687 318.594,271.094 312.656,281.563L297.344,308.125L282.813,332.813L253.75,383.125C247.656,393.594 247.656,406.406 253.75,416.875L269.219,443.594L283.594,468.281L312.5,518.438C318.594,528.906 329.688,535.313 341.719,535.313L459.062,535.313C471.094,535.313 482.344,528.906 488.281,518.438L503.906,491.406L517.031,468.75L518.594,466.094L547.031,416.875C552.969,406.406 552.969,393.594 546.875,383.125ZM440.625,469.688L360.156,469.688L319.844,400L360.156,330.313L440.625,330.313L480.938,400L440.625,469.688Z" style="fill:rgb(255,185,98);fill-rule:nonzero;"/>
        </g>
        <g transform="matrix(1,0,0,1,864.865,239.11)">
            <path d="M362.031,179.219L373.281,190.469L373.281,242.813L427.344,242.813L427.344,190.469L492.812,125C498.125,119.687 500.781,112.813 500.781,105.781C500.781,98.906 498.125,91.875 492.812,86.719C482.187,76.094 465.156,76.094 454.531,86.719L427.344,113.906L427.344,56.25C427.344,48.75 424.375,42.031 419.375,37.188C414.531,32.344 407.656,29.219 400.156,29.219C385.156,29.219 373.125,41.406 373.125,56.25L373.125,113.906L345.781,86.563C335.156,75.938 318.125,75.938 307.5,86.563C302.187,91.875 299.531,98.75 299.531,105.625C299.531,112.5 302.187,119.531 307.5,124.844L362.031,179.219Z" style="fill:rgb(74,144,226);fill-rule:nonzero;"/>
        </g>
        <g transform="matrix(1,0,0,1,864.865,239.11)">
            <path d="M595.469,318.906L610.781,322.969L685,342.969C692.188,345 699.531,343.75 705.469,340.313C711.406,336.875 716.094,331.094 718.125,323.906C722.031,309.531 713.438,294.531 699.063,290.781L661.875,280.781L711.875,252.031C718.281,248.281 722.656,242.344 724.531,235.625C726.406,228.906 725.625,221.563 721.875,215C714.375,202.031 697.813,197.656 685,205L635,233.75L645,196.563C648.906,182.188 640.313,167.344 625.938,163.438C618.75,161.563 611.406,162.656 605.469,166.094C599.531,169.531 594.844,175.313 592.813,182.5L572.813,256.719L568.75,272.031L523.438,298.125L550.469,345L595.469,318.906Z" style="fill:rgb(74,144,226);fill-rule:nonzero;"/>
        </g>
        <g transform="matrix(1,0,0,1,864.865,239.11)">
            <path d="M711.25,549.219L661.25,520.313L698.594,510.469C712.969,506.719 721.719,491.875 717.813,477.344C715.938,470.156 711.25,464.375 705.313,460.938C699.375,457.5 692.031,456.25 684.844,458.125L610.625,477.813L595.312,481.875L550,455.625L522.969,502.5L568.125,528.75L572.187,544.063L591.875,618.281C593.75,625.469 598.437,631.25 604.531,634.688C610.469,638.125 617.813,639.375 625,637.5C639.531,633.75 648.125,618.906 644.219,604.375L634.375,567.188L684.219,596.094C690.625,599.844 698.125,600.625 704.688,598.906C711.406,597.188 717.344,592.813 721.094,586.406C728.438,573.281 724.063,556.719 711.25,549.219Z" style="fill:rgb(74,144,226);fill-rule:nonzero;"/>
        </g>
        <g transform="matrix(1,0,0,1,864.865,239.11)">
            <path d="M437.656,620.938L426.563,609.688L426.719,557.344L372.656,557.344L372.5,609.531L361.25,620.781L306.719,674.844C301.406,680.156 298.75,687.031 298.75,693.906C298.75,700.781 301.406,707.812 306.563,713.125C317.031,723.75 334.219,723.75 344.844,713.281L372.188,686.094L372.031,743.75C372.031,751.25 375,757.969 379.844,762.969C384.688,767.813 391.406,770.938 398.906,770.938C413.906,770.938 425.938,758.906 426.094,743.906L426.25,686.25L453.438,713.594C463.906,724.219 481.094,724.219 491.719,713.75C497.031,708.438 499.688,701.563 499.688,694.688C499.688,687.813 497.031,680.781 491.875,675.469L437.656,620.938Z" style="fill:rgb(74,144,226);fill-rule:nonzero;"/>
        </g>
        <g transform="matrix(1,0,0,1,864.865,239.11)">
            <path d="M204.844,480.312L189.531,476.094L115.469,455.781C108.281,453.75 100.938,455 94.844,458.437C88.75,461.875 84.063,467.656 82.188,474.844C78.281,489.219 86.719,504.219 101.094,508.125L138.281,518.281L88.281,546.875C81.719,550.625 77.344,556.563 75.625,563.281C73.75,570 74.531,577.344 78.281,583.906C85.625,596.875 102.188,601.406 115.156,593.906L165.313,565.312L155.156,602.5C151.25,616.875 159.688,631.719 174.063,635.781C181.25,637.813 188.594,636.563 194.531,633.125C200.625,629.688 205.313,623.906 207.188,616.719L227.5,542.656L231.719,527.344L277.344,501.406L250.312,454.531L204.844,480.312Z" style="fill:rgb(74,144,226);fill-rule:nonzero;"/>
        </g>
        <g transform="matrix(1,0,0,1,864.865,239.11)">
            <path d="M90,249.531L139.844,278.75L102.5,288.437C87.969,292.187 79.375,307.031 83.125,321.406C85,328.594 89.688,334.375 95.625,337.969C101.563,341.562 108.906,342.656 116.094,340.781L190.469,321.406L205.781,317.344L251.094,343.906L278.125,297.031L233.125,270.625L229.063,255.312L209.688,180.937C207.813,173.75 203.125,167.969 197.188,164.375C191.25,160.937 183.906,159.687 176.719,161.562C162.188,165.312 153.594,180.156 157.344,194.531L167.031,231.875L117.344,202.656C110.938,198.906 103.594,198.125 96.875,199.844C90.156,201.563 84.219,205.937 80.313,212.344C72.813,225.312 77.188,241.875 90,249.531Z" style="fill:rgb(74,144,226);fill-rule:nonzero;"/>
        </g>
    </g>
</svg>
